<svg width="96" height="96" viewBox="0 0 96 96" fill="none" xmlns="http://www.w3.org/2000/svg">
  <path d="M48 8C25.909 8 8 25.909 8 48c0 22.092 17.909 40 40 40s40-17.908 40-40C88 25.909 70.091 8 48 8Z" fill="#FFFFFF" fill-opacity="0.9"/>
  <path d="M31.5 46.4c-1-12.3 5.2-20.9 16.3-20.9 11.4 0 18 8.5 17.3 20.9" stroke="#111111" stroke-width="3" stroke-linecap="round"/>
  <path d="M34.5 46.6c4-2.2 7-6.1 8-11.2 3.9 5.4 10.2 8.3 18.3 8.6" stroke="#111111" stroke-width="2.4" stroke-linecap="round" stroke-linejoin="round"/>
  <circle cx="40.4" cy="50" r="2.6" fill="#111111"/>
  <circle cx="57.1" cy="50" r="2.6" fill="#111111"/>
  <path d="M49 51.8c.2 4.8-1.1 7.5-4 7.5" stroke="#111111" stroke-width="2.3" stroke-linecap="round"/>
  <path d="M39.8 66.4c4.9 4.1 12.8 4.1 17.9 0" stroke="#111111" stroke-width="2.8" stroke-linecap="round"/>
  <path d="M27.8 80.2c2.9-8.3 9.9-13.2 20.4-13.2 10.2 0 17.4 5 20.2 13.4" stroke="#111111" stroke-width="2.4" stroke-linecap="round"/>
</svg>
